<?xml version="1.0" standalone="no"?>
<!DOCTYPE svg PUBLIC "-//W3C//DTD SVG 20010904//EN"
 "http://www.w3.org/TR/2001/REC-SVG-20010904/DTD/svg10.dtd">
<svg version="1.0" xmlns="http://www.w3.org/2000/svg"
 width="700.000000pt" height="700.000000pt" viewBox="0 0 700.000000 700.000000"
 preserveAspectRatio="xMidYMid meet">
<metadata>
Created by potrace 1.14, written by Peter Selinger 2001-2017
</metadata>
<g transform="translate(0.000000,700.000000) scale(0.100000,-0.100000)"
fill="#000000" stroke="none">
<path d="M0 6031 l0 -968 48 4 c26 2 175 12 332 23 1155 82 2245 231 3240 446
1088 234 2223 589 3183 994 l147 62 0 204 0 204 -3475 0 -3475 0 0 -969z"/>
<path d="M6750 6344 c-252 -110 -754 -310 -1040 -414 -1633 -595 -3376 -987
-5215 -1175 -183 -18 -465 -45 -482 -45 -10 0 -13 -87 -13 -401 l0 -401 28 6
c15 3 126 24 247 46 2276 418 4477 1092 6360 1950 99 45 210 96 248 112 l67
31 0 188 c0 104 -1 189 -2 189 -2 0 -91 -39 -198 -86z"/>
<path d="M6705 5673 c-1947 -931 -4079 -1657 -6472 -2202 -122 -28 -225 -51
-228 -51 -3 0 -5 -306 -5 -681 0 -541 3 -680 13 -676 196 78 802 332 1122 470
1970 848 3817 1768 5478 2728 172 100 318 186 325 193 9 9 12 53 10 173 l-3
160 -240 -114z"/>
<path d="M6735 4804 c-1904 -1226 -4071 -2425 -6448 -3569 l-287 -138 0 -519
c0 -285 3 -518 7 -518 9 0 373 189 708 368 1946 1039 3979 2286 5998 3679
l237 164 0 335 c0 183 -1 334 -2 334 -2 0 -97 -61 -213 -136z"/>
<path d="M6780 3984 c-1654 -1229 -3798 -2612 -5858 -3780 l-264 -149 471 -3
470 -2 367 221 c1729 1041 3042 1937 4757 3246 l227 174 0 204 c0 113 -3 205
-7 204 -5 0 -78 -52 -163 -115z"/>
<path d="M6875 3369 c-135 -116 -513 -426 -835 -685 -1034 -830 -2218 -1710
-3399 -2527 l-155 -107 2232 0 2232 0 0 1690 c0 930 -1 1690 -2 1689 -2 0 -34
-27 -73 -60z"/>
</g>
</svg>
